<svg width="162" height="46" xmlns="http://www.w3.org/2000/svg" xmlns:xlink="http://www.w3.org/1999/xlink" version="1.1" id="Layer_1" x="0px" y="0px" viewBox="0 0 1724 403.6" style="enable-background:new 0 0 1724 403.6;" xml:space="preserve">
<path style="fill:#003399;" class="st0" d="M202,0c107.5-0.7,202.1,86.8,201.8,202.2c-0.2,113.5-93,202.1-203.2,201.4C92,403-0.4,315,0,200.8  C0.5,86.3,94.6-0.8,202,0z M201.8,7.5C98.4,6.9,7.6,91.1,7.6,201.7c0,108.7,88.2,194.3,194.2,194.4c106.5,0,194.6-86,194.5-194.6  C396.2,91.1,305.4,6.8,201.8,7.5z"/>
<path style="fill:none;" class="st1" d="M201.8,7.5c103.6-0.7,194.3,83.5,194.5,194c0.2,108.6-88,194.6-194.5,194.6C95.7,396,7.6,310.5,7.6,201.7  C7.6,91.1,98.5,6.9,201.8,7.5z M130.5,254.4c1-0.2,1.6-0.4,2.1-0.4c15.2,0,30.4-0.1,45.6,0.1c1.6,0,3.4,1.2,4.7,2.4  c6.2,6,12.2,12.3,18.5,18.3c2.5,2.4,3.8,4.6,3.4,8.6c-0.9,9.2,8.2,15.3,16.3,11.4c5.1-2.5,7.6-8.1,6.2-13.8c-1.3-5-6.1-8.7-11.8-8  c-4,0.6-6.4-0.9-9-3.6c-6.6-6.9-13.4-13.8-20.4-20.3c-1.5-1.4-4.1-2.6-6.2-2.6c-20.4-0.2-40.8,0-61.2-0.2c-3.6,0-4.5,1.1-4.5,4.6  c0.2,25.8,0.3,51.4-0.1,77.2c-0.2,9.9,6.4,19.5,19.4,19.5c45.6,0,91.2,0,136.8,0c13.4,0,19.6-9.8,19.5-19.4  c-0.3-40.6-0.2-81.3-0.2-122c0-0.2,0-0.6,0-0.8c0.5-3.2-0.6-4.7-4.2-4.3c-2.5,0.2-5.1,0.3-7.6,0c-3.8-0.5-4.6,1.2-4.6,4.7  c0.1,34.2,0.1,68.6,0.1,102.8c0,3-0.3,4.6-4.1,4.6c-45-0.1-90.1-0.1-135.2,0c-3,0-3.9-1.1-3.9-4c0.1-9.4,0.1-19,0.1-28.4  C130.5,272,130.5,263.4,130.5,254.4z M202,56.2c-23,0-45.8,0.2-68.8-0.2c-10.6-0.2-19.8,8-19.1,19.3c0.5,8.4,0.1,16.8,0.1,25.2  c0,32.4,0.1,64.8-0.1,97.2c0,3.4,0.8,5,4.5,4.6c2.4-0.2,4.8-0.2,7.2,0c3.6,0.3,4.8-0.9,4.7-4.7c-0.2-34-0.1-68-0.1-102  c0-5.3,0.2-5.5,5.3-5.5c44.4,0,88.8,0,133.2-0.1c3.4,0,4.7,1,4.6,4.6c-0.2,17-0.2,33.8,0,50.8c0,3.2-0.7,4.5-4.2,4.4  c-14.2-0.2-28.2,0-42.4-0.2c-1.8,0-3.9-0.9-5.2-2.1c-6.2-5.8-12.1-12.1-18.2-18c-3-2.9-4.9-5.4-4.3-10.2c0.9-7.1-6.2-13-12.8-11.7  c-7.4,1.4-11.2,7.1-9.8,14.4c1.1,5.8,7.2,9.4,13.8,8.7c1.6-0.2,3.9,0.5,5,1.6c7.7,7.4,15.1,15.1,22.8,22.5c1.4,1.3,3.7,2.2,5.5,2.2  c20.4,0.2,40.8,0,61.2,0.2c3.6,0,4.8-0.8,4.7-4.6c-0.2-26-0.1-52-0.1-78c0-11.2-7.3-18.5-18.5-18.5C248.2,56.2,225.1,56.2,202,56.2z   M375.6,166.3c-1.9,0.2-2.6,0.2-3.4,0.2c-50.8,0-101.6,0-152.4-0.1c-1.8,0-3.8-1-5.2-2.2c-4.2-3.8-8.1-7.8-11.9-11.8  c-1.8-2-3.8-2.9-6.6-2.9c-9,0.2-17.8-0.1-26.8,0c-2.6,0-4.4-0.6-5.9-3c-2.9-4.5-8.4-6.1-13.4-4.4c-4.7,1.5-8.2,6.3-8.3,11.1  c-0.1,4.7,3.4,9.8,7.9,11.4c5.1,1.8,10.8,0.2,13.8-4.3c1.4-2.2,3.1-2.9,5.6-2.9c7.8,0,15.8-0.3,23.6-0.1c2.2,0.1,4.6,1.2,6.2,2.6  c4.3,3.8,8,8.2,12.3,12c1.6,1.4,4.1,2.6,6.2,2.6c54.2,0.2,108.6,0.1,162.8,0.1c1.5,0,3-0.2,4.5-0.3c0.1-1,0.2-1.4,0.1-1.7  c-7.8-45.2-28.7-83.2-64.1-112.5c-47.1-39-101.2-52.4-160.8-38.6C102.5,34.9,61.1,69.4,35,122.1C20.7,151,15.5,181.9,17.4,214  c0.3,5.4,0.2,5.4,5.6,5.4c58.6,0,117,0,175.6,0c3.4,0,5.8,0.4,8.2,3.5c4.2,5.9,12.4,6,17.5,0.9c4.9-4.9,4.6-12.9-0.7-17.4  c-5.2-4.5-13.2-3.7-17.2,2.1c-1.5,2.2-3.2,2.7-5.6,2.7c-19.2-0.1-38.4-0.1-57.6,0c-37.4,0.1-74.9,0.3-112.4,0.5  c-5.7,0-6.1-0.1-5.8-5.8c0.6-11.5,0.6-23.3,2.6-34.6c9.2-50.1,34.9-89.8,77.6-117.6c44.9-29.4,94.1-37.1,145.4-22.1  c60,17.5,99.6,57.4,120,116.5C372.7,154,373.9,160,375.6,166.3z M19.7,229c-0.4,1-0.5,1.1-0.5,1.2c7.5,46.2,29.2,84.7,65.4,114.2  c43.9,35.8,94.5,49.6,150.3,39.1c62.9-11.7,107.9-47.9,135.4-105.4c13.4-28.1,18-58,16.2-89c-0.2-4-1.3-5.2-5.3-5.2  c-59.4,0-118.9-0.2-178.4-0.3c-2.3,0-3.8-0.5-5.3-2.6c-3.9-5.8-12.4-6.7-17.6-2.2c-5.2,4.6-5.4,13-0.4,17.8c5,4.8,13.4,4.3,17.6-1.4  c1.8-2.5,3.7-3.4,6.6-3.4c56.8,0,113.6,0,170.4-0.1c3.8,0,5,1.5,4.7,5c-0.8,11.1-0.8,22.4-2.5,33.4c-5.4,36.2-21.1,67.9-46.7,93.9  c-45.9,46.6-101.8,64.9-165.6,50.5C93.1,358.5,48.9,312.9,29.5,243c-1.7-6-1.4-6.1,5-6.1c48.6,0.2,97,0.3,145.6,0.5  c1.2,0,2.5-0.2,3.6,0.1c1.9,0.6,4.2,1,5.5,2.3c4.3,3.9,8.2,8.3,12.6,12.3c1.3,1.2,3.4,2.1,5.2,2.2c8.4,0.2,16.8,0.2,25.2,0  c3.8-0.1,6.8,0.3,9.5,4c3.9,5.3,11.8,5.1,16.6,0.5c4.4-4.3,4.6-12.2,0.3-16.6c-4.6-4.6-12.8-5.2-16.7-0.1c-3,4-6.4,4.4-10.6,4.1  c-1.8-0.1-3.4,0-5.2,0c-6.2-0.1-13.2,1.4-18.6-0.8c-5.4-2.4-9.4-8.4-13.8-13c-2.1-2.2-4.2-3.1-7.3-3.1  c-54.2,0.1-108.6,0.1-162.8,0.1C22.4,229,21,229,19.7,229z"/>
<path style="fill:#003399;" class="st0" d="M130.5,254.4c0,9,0,17.6,0,26.3c0,9.4,0.1,19-0.1,28.4c-0.1,2.9,0.9,4,3.9,4c45-0.1,90.2-0.1,135.2,0  c3.7,0,4.1-1.7,4.1-4.6c-0.1-34.2,0-68.6-0.1-102.8c0-3.5,0.7-5.2,4.6-4.7c2.5,0.3,5.1,0.2,7.6,0c3.5-0.4,4.6,1.2,4.2,4.3  c0,0.2,0,0.6,0,0.8c0,40.6-0.2,81.4,0.2,122c0.1,9.6-6.2,19.4-19.5,19.4c-45.6,0-91.2,0-136.8,0c-13,0-19.6-9.6-19.4-19.5  c0.4-25.8,0.2-51.4,0.1-77.2c0-3.4,0.9-4.6,4.5-4.6c20.4,0.2,40.8,0,61.2,0.2c2.1,0,4.6,1.1,6.2,2.6c7,6.6,13.8,13.4,20.4,20.3  c2.6,2.6,4.9,4.1,9,3.6c5.8-0.8,10.6,2.9,11.8,8c1.4,5.7-1,11.4-6.2,13.8c-8.1,3.9-17.2-2.2-16.3-11.4c0.4-3.8-0.9-6.1-3.4-8.6  c-6.2-6-12.2-12.3-18.5-18.3c-1.2-1.2-3.1-2.4-4.7-2.4c-15.2-0.2-30.4-0.1-45.6-0.1C132,254,131.5,254.2,130.5,254.4z M201.8,337.1  c3,0,6.2,0.1,9.2,0c3.8-0.2,6.7-2.8,7-6.4c0.2-3.2-2.2-6.8-5.8-7c-6.9-0.4-13.8-0.4-20.7,0c-3.5,0.2-5.9,3.9-5.6,7.1  c0.3,3.4,3.1,6.1,6.6,6.2C195.7,337.1,198.7,337.1,201.8,337.1z M220.4,285.3c0-0.6,0-1.2,0-1.8c-1.4-1-2.7-2.6-4.2-2.9  c-2.5-0.5-4.3,1.3-3.9,3.7c0.2,1.5,2.2,3.6,3.5,3.7C217.2,288,218.9,286.3,220.4,285.3z"/>
<path style="fill:#003399;" class="st0" d="M202,56.2c23,0,46.1,0,69.2,0c11.2,0,18.5,7.3,18.5,18.5c0,26-0.1,52,0.1,78c0,3.8-1.2,4.6-4.7,4.6  c-20.4-0.2-40.8,0-61.2-0.2c-1.8,0-4.2-1-5.5-2.2c-7.7-7.4-15.1-15.1-22.8-22.5c-1.2-1.1-3.4-1.8-5-1.6c-6.6,0.7-12.7-2.9-13.8-8.7  c-1.4-7.3,2.4-12.9,9.8-14.4c6.6-1.4,13.6,4.5,12.8,11.7c-0.6,4.8,1.4,7.4,4.3,10.2c6.2,5.9,12,12.1,18.2,18  c1.3,1.2,3.4,2.1,5.2,2.1c14.2,0.2,28.2,0,42.4,0.2c3.4,0.1,4.2-1.3,4.2-4.4c-0.1-17-0.2-33.8,0-50.8c0-3.5-1.3-4.6-4.6-4.6  c-44.4,0.1-88.8,0.1-133.2,0.1c-5.1,0-5.3,0.2-5.3,5.5c0,34-0.1,68,0.1,102c0,3.8-1.2,5-4.7,4.7c-2.4-0.2-4.8-0.2-7.2,0  c-3.6,0.3-4.5-1.2-4.5-4.6c0.1-32.4,0.1-64.8,0.1-97.2c0-8.4,0.4-16.8-0.1-25.2c-0.6-11.3,8.6-19.5,19.1-19.3  C156.2,56.4,179.1,56.2,202,56.2z M201.8,77.1c7,0,14.1-0.1,21.2,0c2.9,0,5.3-0.7,5.2-4c-0.1-3.2-2.6-3.9-5.4-3.9  c-13.8,0.1-27.7,0.1-41.5,0c-2.9,0-5.3,0.7-5.4,3.9c-0.1,3.3,2.3,4,5.2,4C187.9,77,194.8,77.1,201.8,77.1z M192.5,120.2  c0-0.6,0-1.2-0.1-1.8c-1.4-1-2.8-2.5-4.3-2.8c-2.5-0.5-4.4,1.3-3.8,3.8c0.3,1.5,2.2,3.6,3.6,3.7C189.3,123.1,191,121.2,192.5,120.2z  "/>
<path style="fill:#0099CC;" class="st2" d="M375.6,166.3c-1.7-6.3-2.9-12.3-4.9-18c-20.4-59-60-99-120-116.5c-51.4-15-100.6-7.4-145.6,22.1  c-42.7,27.8-68.4,67.6-77.6,117.6c-2.1,11.3-2,23-2.6,34.6c-0.3,5.7,0.1,5.8,5.8,5.8c37.4-0.2,75-0.3,112.4-0.5  c19.2-0.1,38.4,0,57.6,0c2.4,0,4.1-0.5,5.6-2.7c4-5.8,12-6.6,17.2-2.1c5.3,4.6,5.6,12.6,0.7,17.4c-5.1,5.1-13.3,5-17.5-0.9  c-2.3-3.2-4.8-3.5-8.2-3.5c-58.6,0-117,0-175.6,0c-5.4,0-5.3,0-5.6-5.4c-1.9-32.2,3.4-63,17.7-91.9c26.1-52.6,67.5-87.1,124.8-100.6  c59.5-13.9,113.6-0.4,160.8,38.6c35.4,29.3,56.2,67.3,64.1,112.5c0.1,0.4-0.1,0.8-0.1,1.7c-1.5,0.1-3,0.3-4.5,0.3  c-54.2,0-108.6,0.1-162.8-0.1c-2.1,0-4.6-1.2-6.2-2.6c-4.3-3.8-8-8.2-12.3-12c-1.6-1.4-4.1-2.6-6.2-2.6c-7.8-0.2-15.8,0.1-23.6,0.1  c-2.5,0-4.2,0.7-5.6,2.9c-3,4.6-8.7,6.2-13.8,4.3c-4.6-1.6-8.1-6.7-7.9-11.4c0.1-4.9,3.7-9.6,8.3-11.1c5-1.7,10.5-0.1,13.4,4.4  c1.5,2.4,3.4,3,5.9,3c9-0.1,17.8,0.2,26.8,0c2.8-0.1,4.7,0.9,6.6,2.9c3.8,4.1,7.8,8.1,11.9,11.8c1.3,1.2,3.4,2.2,5.2,2.2  c50.8,0.1,101.6,0.1,152.4,0.1C373,166.6,373.8,166.5,375.6,166.3z M221.1,215.4c-2.4-1.4-3.9-3.1-5.3-3c-1.4,0.2-2.5,2.2-3.7,3.3  c1.4,1.2,2.6,3.1,4.1,3.4C217.4,219.2,218.9,217.2,221.1,215.4z M154.6,149.5c-0.6,0-1.1-0.1-1.7-0.1c-1,1.4-2.7,2.8-2.7,4.2  c0,1.2,2.1,3.2,3.3,3.3c1.3,0,3.5-1.8,3.6-3C157.2,152.5,155.5,151,154.6,149.5z"/>
<path style="fill:#0099CC;" class="st2" d="M19.7,229c1.3,0,2.7,0,4.2,0c54.2,0,108.6,0,162.8-0.1c3,0,5.2,1,7.3,3.1c4.4,4.6,8.4,10.6,13.8,13  c5.3,2.3,12.3,0.7,18.6,0.8c1.8,0,3.4-0.1,5.2,0c4.2,0.2,7.6-0.1,10.6-4.1c3.9-5.1,12.2-4.6,16.7,0.1c4.3,4.4,4.2,12.3-0.3,16.6  c-4.8,4.6-12.7,4.8-16.6-0.5c-2.7-3.7-5.7-4.1-9.5-4c-8.4,0.2-16.8,0.2-25.2,0c-1.8-0.1-3.8-1-5.2-2.2c-4.3-3.9-8.2-8.4-12.6-12.3  c-1.4-1.3-3.6-1.8-5.5-2.3c-1.1-0.3-2.4-0.1-3.6-0.1c-48.5-0.2-97-0.3-145.6-0.5c-6.5,0-6.7,0.1-5,6.1  c19.4,69.9,63.7,115.5,134.5,131.5c63.8,14.5,119.7-3.9,165.6-50.4c25.7-26,41.3-57.7,46.7-93.9c1.7-11,1.7-22.2,2.5-33.4  c0.2-3.4-0.8-5-4.7-5c-56.8,0.2-113.6,0.2-170.4,0.1c-3,0-4.8,0.9-6.6,3.4c-4.2,5.8-12.6,6.2-17.6,1.4s-4.9-13.2,0.4-17.8  c5.1-4.5,13.7-3.5,17.6,2.2c1.4,2.1,3,2.6,5.3,2.6c59.4,0.1,118.9,0.2,178.3,0.3c4,0,5,1.3,5.3,5.2c1.7,31-2.9,61-16.2,89  c-27.5,57.5-72.6,93.7-135.4,105.4c-55.8,10.5-106.4-3.3-150.3-39.1c-36.2-29.5-57.8-68-65.4-114.2C19.2,230.1,19.3,229.9,19.7,229z   M255.8,249.9c-2.6-1.8-4.2-3.7-5.5-3.5c-1.4,0.2-3.4,2.4-3.4,3.7c0,1.2,2.2,3.4,3.6,3.4C251.8,253.6,253.3,251.7,255.8,249.9z   M188,193c1.8-2.4,3.7-4,3.4-5c-0.3-1.4-2.2-3.2-3.6-3.4c-1-0.2-3.4,2-3.4,3.2C184.5,189.1,186.2,190.6,188,193z"/>
<path style="fill:none;" class="st1" d="M152.5,289c-3,0-6.2,0.1-9.2,0c-3.6-0.2-6.3-2.8-6.6-6.2c-0.3-3.2,2.1-7,5.6-7.1c6.9-0.4,13.8-0.4,20.7,0  c3.5,0.2,6,3.8,5.8,7c-0.2,3.5-3.1,6.2-7,6.4C158.6,289.1,155.6,289,152.5,289z"/>
<path style="fill:none;" class="st1" d="M201.8,77.1c-7,0-13.8-0.1-20.8,0c-2.9,0-5.3-0.7-5.2-4c0.1-3.2,2.5-3.9,5.4-3.9c13.8,0.1,27.7,0.1,41.5,0  c2.9,0,5.3,0.7,5.4,3.9c0.1,3.3-2.3,4-5.2,4C215.8,77,208.8,77.1,201.8,77.1z"/>
<path style="fill:none;" class="st1" d="M192.5,120.2c-1.5,1-3.2,2.9-4.6,2.8c-1.4-0.1-3.3-2.2-3.6-3.7c-0.6-2.5,1.4-4.2,3.8-3.8  c1.6,0.3,2.9,1.8,4.3,2.8C192.4,119,192.5,119.6,192.5,120.2z"/>
<path cstyle="fill:none;" lass="st1" d="M221.1,215.4c-2.2,1.8-3.7,3.8-4.8,3.7c-1.4-0.2-2.7-2.2-4.1-3.4c1.2-1.2,2.3-3.1,3.7-3.3  C217.1,212.3,218.7,213.9,221.1,215.4z"/>
<path style="fill:none;" class="st1" d="M154.6,149.5c0.9,1.4,2.6,3,2.5,4.3c-0.2,1.2-2.3,3-3.6,3c-1.2,0-3.3-2.1-3.3-3.3c-0.1-1.4,1.8-2.8,2.7-4.2  C153.4,149.5,154.1,149.5,154.6,149.5z"/>
<path style="fill:none;" class="st1" d="M206.4,201.8c-2.6,1.8-4.1,3.8-5.4,3.6c-1.4-0.1-3.6-2.2-3.6-3.4c0-1.3,2.1-3.5,3.4-3.7  C202.3,198.2,203.9,200.1,206.4,201.8z"/>
<path style="fill:none;" class="st1" d="M188,193c-1.8-2.4-3.6-3.8-3.5-5.2c0-1.2,2.3-3.3,3.4-3.2c1.4,0.2,3.3,2,3.6,3.4C191.7,189,189.8,190.6,188,193  z"/>
<g>
	<path style="fill:#003399;" class="st0" d="M574.2,130.3v25h-49.4v111.4h-34V155.3h-49.4v-25H574.2z"/>
	<path style="fill:#003399;" class="st0" d="M695.9,241.7v25H595.3V130.3h99.2v25h-65.2v28.6h62.2v25h-62.2v32.8L695.9,241.7L695.9,241.7z"/>
	<path style="fill:#003399;" class="st0" d="M849,225.1v29.8c-17.1,9-34.9,13.6-53.6,13.6c-24.2,0-43.5-6.7-57.9-20.1S716,218.5,716,198.9   c0-19.6,7.6-36.2,22.7-49.9s34.9-20.5,59.3-20.5c19.5,0,35.9,4,49.4,12v30.4c-16.5-9.3-32.2-14-47-14c-14.5,0-26.4,3.9-35.6,11.7   c-9.2,7.8-13.8,17.7-13.8,29.7c0,12.1,4.5,22.1,13.6,30s20.7,11.8,34.9,11.8c7,0,13.8-0.9,20.3-2.8   C826.4,235.5,836.1,231.4,849,225.1z"/>
	<path style="fill:#003399;" class="st0" d="M1012.2,130.3v136.4h-34v-55.2h-68v55.2h-34V130.3h34v54.8h68v-54.8H1012.2z"/>
	<path style="fill:#0099CC;" class="st2" d="M1143.6,241.7v25H1043V130.3h99.2v25H1077v28.6h62.2v25H1077v32.8L1143.6,241.7L1143.6,241.7z"/>
	<path style="fill:#0099CC;" class="st2" d="M1307.8,130.3v136.4h-28.7l-75.3-87.4v87.4h-34V130.3h31.2l72.8,83.4v-83.4L1307.8,130.3L1307.8,130.3z"/>
	<path style="fill:#0099CC;" class="st2" d="M1461.6,130.3v25h-49.4v111.4h-34V155.3h-49.4v-25H1461.6z"/>
	<path style="fill:#0099CC;" class="st2" d="M1482.3,130.3h60.9c13.2,0,24,3.8,32.2,11.5c8.3,7.6,12.4,16.9,12.4,27.8c0,15-7.8,26.2-23.4,33.4   c6.8,3.1,13.4,11.5,19.5,25.2c6.2,13.7,12.1,26.5,17.9,38.6h-37.3c-2.2-4.5-6.1-13.1-11.6-25.7c-5.5-12.6-10.3-20.7-14.2-24.3   c-3.9-3.6-8.2-5.4-12.6-5.4h-9.8v55.4h-34V130.3z M1516.3,155.3v31.1h18c5.7,0,10.3-1.4,13.6-4.1c3.4-2.7,5-6.6,5-11.6   c0-10.3-6.5-15.4-19.4-15.4H1516.3z"/>
	<path style="fill:#0099CC;" class="st2" d="M1636.2,266.7V203l-53.8-72.8h41.2l29.6,42.9l29.7-42.9h41.1l-53.8,72.8v63.6h-34V266.7z"/>
</g>
</svg>